# xmcd
# 
# Track frame offsets:
#     150
#     19194
#     55910
#     69119
#     98966
#     110423
#     114439
#     139061
#     163441
#     186501
#     204939
#     234921
#     257673
#     288057
#     316607
# 
# Disc length: 4632
# 
# Revision: 0
# Processed by: cddbd v1.5.2PL0 Copyright (c) Steve Scherf et al.
# Submitted via: fre:ac v1.1beta1pre3
# 
DISCID=ca12160f
DTITLE=Botafogo and Bruce Ewan - Blues Total
DYEAR=2000
DGENRE=Blues
TTITLE0=Don't Start Me Talking
TTITLE1=Early in the Morning
TTITLE2=Solo de Armónica
TTITLE3=Early in the Morning II
TTITLE4=Ewan Shuffle
TTITLE5=Presentación Músicos
TTITLE6=Yonder Wall
TTITLE7=Tough Times
TTITLE8=Top of the Harp
TTITLE9=Thats Allright
TTITLE10=Easy Baby
TTITLE11=Oopin Doopin
TTITLE12=Black Night
TTITLE13=I Wish U Would
TTITLE14=Chitlins C/Carne
EXTD=
EXTT0=
EXTT1=
EXTT2=
EXTT3=
EXTT4=
EXTT5=
EXTT6=
EXTT7=
EXTT8=
EXTT9=
EXTT10=
EXTT11=
EXTT12=
EXTT13=
EXTT14=
PLAYORDER=
